<svg width="520" height="520" viewBox="0 0 520 520" fill="none" xmlns="http://www.w3.org/2000/svg">
<g clip-path="url(#clip0_1_2)">
<path fill-rule="evenodd" clip-rule="evenodd" d="M201.745 426.171C239.527 426.533 278.803 425.622 316.18 426.195C318.087 426.229 318.743 426.646 319.111 425.147C319.41 423.922 320.576 412.593 322.212 405.689C331.895 364.783 353.401 346.84 372.976 314.833C393.204 281.777 396.604 239.721 380.488 200.638C350.985 129.093 264.99 98.8506 195.132 138.144C169.015 152.839 143.14 181.607 134.047 218.68C122.759 264.716 135.455 299.648 157.049 329.273C167.059 343.003 177.196 356.625 185.507 371.629C191.812 383.007 196.915 397.481 199.428 410.745C200.243 415.043 200.693 422.412 201.745 426.171ZM230.81 501.626C231.531 511.774 236.355 519.045 246.884 519.045H273.947C284.321 519.045 289.324 511.685 290.01 501.591C300.912 500.278 307.022 499.279 313.628 493.09C319.111 487.955 323.251 481.565 323.251 470.457V448.235L197.325 448.23C197.351 468.208 193.743 487.293 213.277 497.49C219.95 500.974 223.267 500.376 230.81 501.626ZM240.191 173.816C230.198 175.354 213.815 187.124 206.229 194.146C197.389 202.329 189.402 215.005 184.008 226.476C182.653 229.362 179.307 236.614 179.71 240.118C180.237 244.689 184.666 248.252 190.01 248.085C195.88 247.904 197.372 244.057 199.184 239.339C200.845 235.022 202.823 230.641 204.918 226.883C211.853 214.442 220.06 205.553 231.174 198.575C234.926 196.219 238.818 194.273 243.302 192.514C256.933 187.158 249.329 172.414 240.191 173.816Z" fill="black"/>
</g>
<defs>
<clipPath id="clip0_1_2">
<rect width="520" height="520" fill="white"/>
</clipPath>
</defs>
</svg>
