<?xml version="1.0" encoding="utf-8"?>
<svg id="master-artboard" viewBox="0 0 520 520" xmlns="http://www.w3.org/2000/svg" width="520px" height="520px" version="1.1" style="shape-rendering:geometricPrecision; text-rendering:geometricPrecision; image-rendering:optimizeQuality; fill-rule:evenodd; clip-rule:evenodd"><rect id="ee-background" x="0" y="0" width="520" height="520" style="fill: white; fill-opacity: 0; pointer-events: none;"/><metadata id="metadata8"/><g transform="matrix(0.3675000071525574, 0, 0, 0.3675000071525574, -229.65997314453125, -230.08151245117188)"><metadata id="metadata-1"/><g transform="matrix(1.3333333,0,0,-1.3333333,0,2666.6667)" id="g10"><g transform="scale(0.1)" id="g12"><path id="path14" style="fill: rgb(0, 0, 0); fill-opacity: 1; fill-rule: evenodd; stroke: none;" d="m 8804.19,6607.1 c 771.06,-7.4 1572.61,11.2 2335.41,-0.5 38.9,-0.7 52.3,-9.2 59.8,21.4 6.1,25 29.9,256.2 63.3,397.1 197.6,834.8 636.5,1201 1036,1854.2 412.8,674.6 482.2,1532.9 153.3,2330.5 -602.1,1460.1 -2357.1,2077.3 -3782.77,1275.4 -533.01,-299.9 -1061.07,-887 -1246.64,-1643.6 -230.37,-939.5 28.74,-1652.4 469.44,-2257 204.27,-280.2 411.15,-558.2 580.77,-864.4 128.66,-232.2 232.82,-527.6 284.09,-798.3 16.64,-87.7 25.83,-238.1 47.3,-314.8 z m 486.09,548.6 h 1414.42 c 16.4,41.5 37.9,169.2 50.6,218.2 18.2,70.6 40.3,137.4 65.4,203.5 373.5,987.4 1230.6,1388.7 1285,2493.5 60.1,1221.9 -909.9,2216.7 -2096,2220.8 -1194.71,4.1 -2169.58,-983.9 -2118.45,-2205.5 53.38,-1273.7 1193.41,-1658.8 1399.03,-2930.5 z m 107.07,-2088.5 c 14.72,-207.1 113.16,-355.5 328.03,-355.5 h 552.32 c 211.7,0 313.8,150.2 327.8,356.2 222.5,26.8 347.2,47.2 482,173.5 111.9,104.8 196.4,235.2 196.4,461.9 v 453.5 l -2569.92,0.1 c 0.53,-407.7 -73.1,-797.2 325.55,-1005.3 136.19,-71.1 203.87,-58.9 357.82,-84.4 z m 191.45,6690 c -203.94,-31.4 -538.29,-271.6 -693.1,-414.9 -180.41,-167 -343.42,-425.7 -453.5,-659.8 -27.64,-58.9 -95.93,-206.9 -87.71,-278.4 10.76,-93.3 101.15,-166 210.21,-162.6 119.78,3.7 150.24,82.2 187.22,178.5 33.89,88.1 74.26,177.5 117.01,254.2 141.54,253.9 309.02,435.3 535.85,577.7 76.57,48.1 155.99,87.8 247.5,123.7 278.18,109.3 123,410.2 -63.48,381.6 z m -3207.81,2049 c -96.7,-36.5 -141.01,-119.7 -116.14,-215.5 18.29,-70.3 110.04,-145.7 151.68,-187.4 115.15,-115.1 224.29,-224.8 339.63,-339.7 l 509.35,-509.2 c 46.37,-46.5 114.85,-127.5 231.66,-90 76.32,24.4 144.43,110.5 117.92,218.1 -17.04,69.5 -110.39,146.7 -151.75,188.1 l -848.95,849 c -46.5,46.5 -116.58,130.7 -233.4,86.6 z m 7210.81,-3588.7 c -149.3,-38 -184.7,-232.3 -65,-318.1 66,-47.3 144.1,-36.4 234.1,-36.4 200.8,0 1264.4,-10.2 1332.5,4.5 152.2,32.9 184.7,233.1 64.8,321 -82.1,60.3 -379.8,34.5 -504.9,34.5 -137.9,0 -1003.1,9.3 -1061.5,-5.5 z M 7388.7,7672.4 c -85.9,-17.2 -148.38,-100 -195.78,-147.5 L 6343.94,6676 c -46.47,-46.6 -131.8,-113.4 -97.35,-234.5 22.32,-78.5 107.08,-145.2 210.84,-123.6 83.78,17.4 291.66,251.2 359.74,319.1 115.3,115.1 224.47,224.6 339.62,339.7 115.16,115.1 224.58,224.4 339.6,339.6 46.12,46.2 131.95,110.2 98.65,229.3 -22.12,79 -101.53,147.8 -206.34,126.8 z m -2464.98,2575.4 c -159.67,-25 -208.77,-216.1 -85.73,-318.4 78.96,-65.7 370.09,-39 496.5,-39 81.66,0 1009.45,-6.1 1063.01,2.4 157.21,24.6 201.05,237 81.73,319.4 -66.68,46 -135.22,37.4 -228.64,37.4 -134.89,-0.1 -1277.07,5.9 -1326.87,-1.8 z m 5063.4,5037.6 c -180.67,-32.2 -152.12,-203 -152.12,-381.7 v -1066.1 c 0,-80.3 -13.12,-180.7 26.49,-243.3 30.99,-48.9 100.94,-96.2 187.21,-80.5 170.1,30.8 146.4,214.8 146.4,386.9 v 1066.2 c 0,85.8 12.2,175.4 -30.5,241.7 -28.2,44 -93.8,91.8 -177.48,76.8 z M 12507.9,7647.2 c -78.1,-25.4 -146.1,-97.7 -122.3,-209.1 15.7,-73.6 106.5,-146.7 149,-189.3 l 679.1,-679.1 c 58.7,-58.5 111.3,-111.3 169.9,-169.9 47.8,-47.8 114.6,-135.1 235.6,-96.5 74.6,23.9 142.1,102.2 120.9,208.7 -14.9,74.9 -110.6,148.8 -150.5,188.6 l -849,849 c -50.7,50.6 -108.2,138 -232.7,97.6 z m 1032.4,6145.7 c -73.1,-18.9 -122.5,-87.1 -189.2,-153.6 -58.5,-58.5 -111.4,-111.1 -169.7,-169.8 l -679.2,-679.3 c -48.4,-48.3 -134.2,-110.8 -91.8,-232.4 25.8,-74.1 109.4,-143.7 218.1,-115 74.8,19.9 291.3,258.6 355.9,323.3 114.9,115.3 224.4,224.6 339.6,339.6 115.2,115.1 224.2,224.7 339.6,339.6 48.9,48.7 129.6,113.8 89.2,234.4 -24.7,73.9 -112.2,139.2 -212.5,113.2"/></g></g></g></svg>