<?xml version="1.0" standalone="no"?>
<!DOCTYPE svg PUBLIC "-//W3C//DTD SVG 20010904//EN"
 "http://www.w3.org/TR/2001/REC-SVG-20010904/DTD/svg10.dtd">
<svg version="1.0" xmlns="http://www.w3.org/2000/svg"
 width="700.000000pt" height="700.000000pt" viewBox="0 0 700.000000 700.000000"
 preserveAspectRatio="xMidYMid meet">
<metadata>
Created by potrace 1.14, written by Peter Selinger 2001-2017
</metadata>
<g transform="translate(0.000000,700.000000) scale(0.100000,-0.100000)"
fill="#000000" stroke="none">
<path d="M3454 6971 c-58 -36 -59 -38 -59 -577 0 -450 2 -492 18 -517 53 -82
160 -79 203 5 15 29 17 86 17 523 0 441 -1 493 -16 522 -32 60 -105 80 -163
44z"/>
<path d="M1103 6004 c-61 -30 -82 -98 -50 -160 18 -33 681 -696 712 -712 11
-5 37 -9 57 -7 73 4 118 58 110 132 -4 35 -35 69 -351 386 -190 192 -358 355
-373 363 -35 18 -65 17 -105 -2z"/>
<path d="M5835 6000 c-21 -6 -145 -124 -378 -357 -192 -192 -352 -355 -357
-363 -15 -24 -11 -88 6 -116 22 -32 64 -54 107 -54 24 0 45 10 77 38 57 48
657 651 675 677 61 90 -25 206 -130 175z"/>
<path d="M3457 5374 c-1 -1 -43 -4 -94 -7 -268 -18 -581 -124 -812 -274 -335
-218 -593 -552 -711 -920 -67 -207 -85 -326 -85 -563 0 -192 5 -239 40 -380
63 -253 161 -446 375 -740 196 -269 315 -458 382 -605 67 -149 126 -350 143
-490 4 -33 9 -73 11 -88 2 -16 6 -32 9 -36 3 -6 1550 -8 1575 -2 3 0 7 13 8
29 1 15 7 52 12 82 5 30 12 72 16 94 11 73 32 151 65 246 84 242 130 321 485
827 170 242 233 358 295 543 35 105 51 169 65 253 2 15 7 42 10 60 15 89 12
336 -7 462 -107 732 -628 1300 -1344 1465 -94 22 -111 25 -235 35 -71 6 -199
12 -203 9z m123 -365 c258 -8 550 -116 775 -288 68 -51 189 -171 232 -228 15
-21 31 -40 34 -43 17 -13 95 -145 134 -225 59 -122 102 -254 119 -367 3 -21 9
-55 12 -75 9 -48 8 -275 0 -325 -3 -21 -9 -55 -12 -75 -23 -156 -108 -362
-217 -531 -24 -37 -106 -150 -183 -252 -313 -417 -412 -596 -479 -868 l-27
-107 -465 0 -466 0 -13 65 c-35 170 -111 356 -218 528 -45 73 -310 436 -383
526 -32 40 -126 190 -159 256 -103 205 -147 382 -148 600 -1 194 21 332 79
491 119 331 373 617 688 776 85 42 284 110 352 119 28 3 53 8 57 10 4 3 49 7
100 11 51 3 95 7 97 9 2 2 7 2 10 -1 4 -2 40 -5 81 -6z"/>
<path d="M3200 4653 c-149 -52 -351 -187 -473 -317 -112 -120 -274 -401 -299
-518 -9 -43 -8 -59 3 -82 20 -41 60 -68 110 -73 73 -7 97 16 153 146 124 285
282 457 527 574 100 49 146 84 151 120 12 76 -51 158 -119 156 -21 0 -45 -3
-53 -6z"/>
<path d="M145 3662 c-79 -17 -118 -126 -66 -186 42 -48 42 -48 563 -47 541 0
540 0 570 64 29 62 6 136 -50 159 -19 8 -175 12 -512 13 -267 1 -494 -1 -505
-3z"/>
<path d="M5842 3630 c-70 -43 -76 -138 -12 -195 21 -19 38 -20 526 -23 440 -2
507 -1 534 13 93 48 80 188 -20 215 -26 7 -210 10 -518 10 -450 -1 -481 -2
-510 -20z"/>
<path d="M1755 1956 c-41 -19 -725 -707 -727 -731 0 -11 -2 -27 -3 -35 -5 -53
44 -109 103 -117 33 -4 47 0 83 25 57 40 671 657 697 700 32 54 8 128 -52 156
-41 19 -61 20 -101 2z"/>
<path d="M5132 1934 c-46 -27 -65 -76 -51 -127 12 -45 692 -727 740 -743 85
-29 171 54 147 142 -5 22 -109 132 -365 388 -196 196 -364 357 -372 357 -9 1
-26 3 -38 4 -12 1 -39 -8 -61 -21z"/>
<path d="M2657 956 c-9 -25 1 -345 12 -389 29 -123 96 -209 204 -262 73 -35
84 -38 180 -50 l55 -7 6 -44 c10 -76 51 -140 111 -172 25 -14 68 -17 268 -19
251 -2 263 0 326 45 36 27 81 111 81 154 0 32 6 36 56 43 77 11 140 28 184 50
66 34 139 110 174 185 l31 65 3 205 4 206 -846 0 c-590 0 -846 -3 -849 -10z"/>
</g>
</svg>
