<svg width="545.9" height="81.1" viewBox="0 0 545.9 81.1" xmlns="http://www.w3.org/2000/svg"><g id="svgGroup" stroke-linecap="round" fill-rule="nonzero" font-size="9pt" stroke="#000" stroke-width="0.0mm" fill="#000" style="stroke:#000;stroke-width:0.0mm;fill:#000"><path d="M 439.6 71 L 439.6 22.2 L 439.8 21.6 Q 440 21 441.2 21 L 449.5 21 L 456.5 41.6 Q 456.9 42.8 457.3 44.1 Q 457.7 45.4 458.05 46.55 Q 458.4 47.7 458.65 48.45 L 458.9 49.2 Q 459.084 48.279 459.65 46.087 A 213.572 213.572 0 0 1 459.75 45.7 Q 460.4 43.2 461.3 40.4 L 467.3 22.2 A 5.532 5.532 0 0 1 467.488 21.854 Q 467.694 21.506 467.9 21.3 A 0.812 0.812 0 0 1 468.165 21.129 Q 468.418 21.024 468.813 21.005 A 3.801 3.801 0 0 1 469 21 L 477.8 21 L 477.8 69.8 Q 477.8 70.234 477.591 70.484 A 0.794 0.794 0 0 1 477.4 70.65 Q 477.072 70.855 475.835 70.926 A 20.726 20.726 0 0 1 475.25 70.95 Q 473.5 71 469.3 71 L 469.4 53.5 Q 469.4 48.5 469.55 43.55 Q 469.7 38.6 469.9 33.5 Q 469.594 34.419 469.112 35.953 A 368.587 368.587 0 0 0 468.8 36.95 A 236.548 236.548 0 0 1 467.694 40.41 A 262.959 262.959 0 0 1 467.3 41.6 Q 466.5 44 465.8 45.95 Q 465.194 47.638 464.963 48.389 A 10.922 10.922 0 0 0 464.9 48.6 L 460.9 59.2 Q 460.6 59.7 460 59.7 L 456.2 59.7 L 452.3 48.6 L 451.55 46.35 A 154.573 154.573 0 0 1 451.117 45.028 Q 450.927 44.442 450.723 43.798 A 279.662 279.662 0 0 1 450.3 42.45 Q 449.6 40.2 448.85 37.85 Q 448.1 35.5 447.4 33.6 L 447.4 33.7 L 447.4 33.8 Q 447.7 38.5 447.8 43.45 Q 447.9 48.4 447.8 53.1 L 447.7 69.8 A 1.227 1.227 0 0 1 447.667 70.098 A 0.709 0.709 0 0 1 447.25 70.6 A 1.574 1.574 0 0 1 446.993 70.683 Q 446.562 70.789 445.684 70.86 A 27.146 27.146 0 0 1 445.1 70.9 A 39.724 39.724 0 0 1 444.119 70.944 Q 442.533 70.997 439.881 71 A 279.803 279.803 0 0 1 439.6 71 Z M 407.4 51.1 L 407.6 43.7 L 409.3 43.75 Q 411 43.8 413.6 43.8 Q 416.2 43.8 418.75 43.55 A 32.867 32.867 0 0 0 420.543 43.327 Q 421.393 43.197 422.119 43.029 A 15.229 15.229 0 0 0 423 42.8 Q 423.3 41.5 423.4 39.95 Q 423.5 38.4 423.5 37 A 40.502 40.502 0 0 0 423.439 34.675 Q 423.249 31.388 422.473 29.942 A 3.812 3.812 0 0 0 422.45 29.9 A 3.445 3.445 0 0 0 420.346 28.246 Q 419.718 28.054 418.945 28.012 A 8.212 8.212 0 0 0 418.5 28 A 4.741 4.741 0 0 0 416.076 28.676 A 5.959 5.959 0 0 0 415.65 28.95 Q 414.651 29.653 413.871 31.096 A 11.769 11.769 0 0 0 413.35 32.2 A 16.506 16.506 0 0 0 412.744 33.97 Q 412.478 34.906 412.254 36.013 A 41.12 41.12 0 0 0 411.85 38.4 A 49.077 49.077 0 0 0 411.515 41.592 Q 411.3 44.475 411.3 48.1 A 61.345 61.345 0 0 0 411.369 51.099 Q 411.486 53.476 411.8 55.3 A 21.937 21.937 0 0 0 412.197 57.152 Q 412.432 58.045 412.725 58.783 A 9.389 9.389 0 0 0 413.25 59.9 A 5.95 5.95 0 0 0 414.54 61.512 A 5.392 5.392 0 0 0 415.85 62.35 Q 417.5 63.1 419.8 63.1 Q 422.7 63.1 425.55 62.3 Q 428.4 61.5 430.9 60.1 A 9.378 9.378 0 0 1 431.313 61.512 Q 431.475 62.275 431.55 63.15 Q 431.69 64.784 431.699 66.113 A 26.784 26.784 0 0 1 431.7 66.3 A 3.021 3.021 0 0 1 431.013 68.201 Q 430.557 68.782 429.8 69.3 A 10.798 10.798 0 0 1 427.975 70.29 Q 426.571 70.895 424.75 71.3 A 28.808 28.808 0 0 1 421.001 71.866 A 36.899 36.899 0 0 1 417.8 72 A 21.307 21.307 0 0 1 413.954 71.666 A 17.507 17.507 0 0 1 411.4 71 Q 408.5 70 406.4 67.5 A 12.882 12.882 0 0 1 404.842 65.122 Q 404.215 63.909 403.705 62.421 A 28.237 28.237 0 0 1 403.1 60.4 A 31.697 31.697 0 0 1 402.393 56.745 Q 402.146 54.961 402.023 52.9 A 73.982 73.982 0 0 1 401.9 48.5 A 95.402 95.402 0 0 1 402.047 43.044 Q 402.369 37.435 403.4 33.55 Q 404.9 27.9 407.4 25 A 14.261 14.261 0 0 1 410.12 22.532 A 11.677 11.677 0 0 1 413.1 21.05 Q 416.3 20 419.6 20 A 15.512 15.512 0 0 1 423.51 20.464 A 10.545 10.545 0 0 1 429.1 23.95 Q 431.462 26.777 432.133 31.781 A 32.566 32.566 0 0 1 432.4 36.1 Q 432.4 39.6 432.1 43.2 A 46.973 46.973 0 0 1 431.761 46.178 Q 431.544 47.643 431.243 48.921 A 26.511 26.511 0 0 1 431.1 49.5 Q 428.106 50.155 424.325 50.46 A 71.277 71.277 0 0 1 423.8 50.5 Q 419.7 50.8 415.95 50.95 Q 412.2 51.1 409.8 51.1 L 407.4 51.1 Z M 363.8 71 L 363.8 22.8 Q 363.8 21.9 364.15 21.55 Q 364.434 21.266 365.773 21.147 A 18.094 18.094 0 0 1 366.45 21.1 A 51.181 51.181 0 0 1 367.597 21.056 Q 369.367 21.006 372.374 21.001 A 411.845 411.845 0 0 1 373.1 21 L 373.1 42.1 L 384.2 42.1 L 384.2 22.8 A 3.171 3.171 0 0 1 384.228 22.367 Q 384.305 21.809 384.6 21.55 Q 384.938 21.255 386.381 21.137 A 19.162 19.162 0 0 1 386.95 21.1 Q 388.746 21.008 392.789 21.001 A 394.94 394.94 0 0 1 393.5 21 L 393.5 69.2 Q 393.5 70.1 393.15 70.45 A 0.741 0.741 0 0 1 392.912 70.596 Q 392.37 70.823 390.9 70.9 A 47.882 47.882 0 0 1 389.779 70.944 Q 387.81 71 384.2 71 L 384.2 49.9 L 373.1 49.9 L 373.1 69.2 A 3.171 3.171 0 0 1 373.073 69.634 Q 372.995 70.192 372.7 70.45 Q 372.357 70.751 370.907 70.867 A 18.584 18.584 0 0 1 370.4 70.9 Q 368.65 70.992 364.526 71 A 411.311 411.311 0 0 1 363.8 71 Z M 130.6 21 L 147.7 21 L 147.7 69.3 Q 147.7 69.88 147.607 70.226 A 1.658 1.658 0 0 1 147.6 70.25 A 0.439 0.439 0 0 1 147.449 70.467 Q 147.297 70.593 147.006 70.678 A 3.133 3.133 0 0 1 146.7 70.75 A 6.912 6.912 0 0 1 146.231 70.819 Q 145.425 70.913 144 70.95 Q 142.545 70.988 140.094 70.997 A 436.607 436.607 0 0 1 138.5 71 L 138.5 28.7 L 131.4 28.7 Q 130.5 43.8 128.95 53.25 A 75.483 75.483 0 0 1 127.987 58.166 Q 126.641 63.938 124.7 67.1 A 11.116 11.116 0 0 1 122.847 69.42 A 7.422 7.422 0 0 1 117.6 71.5 Q 115 71.5 113.6 69.75 A 4.112 4.112 0 0 1 112.881 68.328 Q 112.404 66.712 112.8 64.2 Q 115.498 64.2 117.197 62.104 A 7.401 7.401 0 0 0 117.2 62.1 Q 118.9 60 119.9 55.3 A 58.965 58.965 0 0 0 120.486 52.065 Q 121.068 48.304 121.473 43.192 A 188.065 188.065 0 0 0 121.5 42.85 A 758.413 758.413 0 0 0 121.806 38.741 Q 122.275 32.225 122.8 23.6 A 5.65 5.65 0 0 1 122.886 22.996 Q 123.014 22.359 123.281 21.977 A 1.656 1.656 0 0 1 123.3 21.95 A 1.112 1.112 0 0 1 123.638 21.658 Q 124.163 21.345 125.277 21.203 A 10.392 10.392 0 0 1 125.3 21.2 Q 126.506 21.049 128.906 21.012 A 110.029 110.029 0 0 1 130.6 21 Z M 309.9 55.9 L 309.9 22.8 Q 309.9 21.9 310.25 21.55 A 0.717 0.717 0 0 1 310.482 21.409 Q 311.038 21.178 312.6 21.1 A 54.183 54.183 0 0 1 313.769 21.056 Q 315.564 21.006 318.573 21.001 A 412.38 412.38 0 0 1 319.3 21 L 319.3 56.6 A 26.855 26.855 0 0 0 319.344 58.185 Q 319.392 58.994 319.492 59.681 A 10.741 10.741 0 0 0 319.75 60.95 A 4.951 4.951 0 0 0 320.193 62.061 A 3.489 3.489 0 0 0 321.4 63.35 A 4.163 4.163 0 0 0 322.43 63.8 Q 323.413 64.091 324.81 64.1 A 13.912 13.912 0 0 0 324.9 64.1 A 10.135 10.135 0 0 0 325.984 64.038 Q 326.775 63.952 327.7 63.75 Q 329.3 63.4 330.7 62.5 L 330.7 22.8 Q 330.7 21.9 331.05 21.55 A 0.741 0.741 0 0 1 331.288 21.404 Q 331.831 21.177 333.3 21.1 Q 335.05 21.008 339.089 21.001 A 394.417 394.417 0 0 1 339.8 21 L 339.8 68.3 A 26.271 26.271 0 0 1 337.12 69.536 Q 335.25 70.281 333 70.9 Q 329 72 324.8 72 A 31.198 31.198 0 0 1 321.371 71.824 Q 319.737 71.643 318.378 71.275 A 12.198 12.198 0 0 1 315.65 70.2 Q 312.4 68.4 311.15 64.8 A 20.509 20.509 0 0 1 310.318 61.46 Q 310.037 59.783 309.945 57.85 A 40.994 40.994 0 0 1 309.9 55.9 Z M 12.749 71.662 A 18.263 18.263 0 0 1 11 71.25 Q 8.4 70.5 6.35 68.55 A 11.279 11.279 0 0 1 4.695 66.53 Q 3.693 64.996 2.9 62.9 A 28.754 28.754 0 0 1 1.96 59.88 Q 1.225 57.015 0.75 53.25 Q 0 47.3 0 38.7 A 147.623 147.623 0 0 1 0.162 31.575 Q 0.326 28.186 0.657 25.26 A 68.625 68.625 0 0 1 1.15 21.7 Q 1.978 16.734 3.272 13.115 A 27.918 27.918 0 0 1 4.35 10.5 A 28.62 28.62 0 0 1 5.958 7.556 Q 6.865 6.118 7.854 5.007 A 14.275 14.275 0 0 1 8.95 3.9 A 15.64 15.64 0 0 1 11.479 2.024 A 12.098 12.098 0 0 1 14.3 0.8 A 20.459 20.459 0 0 1 18.614 0.038 A 18.481 18.481 0 0 1 19.8 0 A 28.943 28.943 0 0 1 21.844 0.067 Q 23.859 0.211 25.193 0.658 A 6.964 6.964 0 0 1 25.7 0.85 A 8.474 8.474 0 0 1 26.828 1.425 Q 27.935 2.106 28.45 3 A 5.861 5.861 0 0 1 29.007 4.28 A 4.676 4.676 0 0 1 29.2 5.6 A 10.233 10.233 0 0 1 28.752 8.644 A 10.679 10.679 0 0 1 28.75 8.65 A 26.158 26.158 0 0 1 28.317 9.933 Q 28.066 10.616 27.8 11.2 Q 27.3 10.7 26.4 10.2 Q 25.502 9.701 24.305 9.302 A 16.074 16.074 0 0 0 24.3 9.3 Q 23.1 8.9 21.7 8.9 Q 19.9 8.9 18.15 9.55 Q 16.564 10.139 15.101 11.673 A 12.667 12.667 0 0 0 14.8 12 Q 13.566 13.388 12.6 15.669 A 23.445 23.445 0 0 0 12.05 17.1 A 30.311 30.311 0 0 0 11.253 19.828 Q 10.907 21.233 10.617 22.868 A 67.342 67.342 0 0 0 10.2 25.55 A 67.762 67.762 0 0 0 9.774 29.729 Q 9.5 33.475 9.5 38.1 A 125.431 125.431 0 0 0 9.583 42.806 Q 9.741 46.999 10.2 50.05 A 47.447 47.447 0 0 0 10.682 52.751 Q 11.209 55.256 11.913 56.934 A 12.993 12.993 0 0 0 12.05 57.25 Q 13.2 59.8 14.95 60.85 A 7.424 7.424 0 0 0 18.475 61.89 A 8.954 8.954 0 0 0 18.9 61.9 A 16.14 16.14 0 0 0 22.601 61.487 A 14.403 14.403 0 0 0 23.95 61.1 A 19.161 19.161 0 0 0 25.442 60.527 Q 26.135 60.224 26.701 59.896 A 8.234 8.234 0 0 0 27.6 59.3 Q 28.092 60.383 28.488 61.805 A 23.807 23.807 0 0 1 28.5 61.85 A 10.901 10.901 0 0 1 28.886 64.173 A 9.911 9.911 0 0 1 28.9 64.7 A 5.392 5.392 0 0 1 27.504 68.334 A 6.93 6.93 0 0 1 27.4 68.45 Q 25.9 70.1 23.1 71.05 Q 20.385 71.971 16.823 71.999 A 28.5 28.5 0 0 1 16.6 72 A 21.196 21.196 0 0 1 12.749 71.662 Z M 292 71 L 292 52.9 Q 290.4 53.2 288.45 53.45 Q 286.5 53.7 284.5 53.7 A 20.993 20.993 0 0 1 281.138 53.449 Q 277.347 52.833 275.25 50.7 A 8.157 8.157 0 0 1 273.571 48.059 Q 272.531 45.543 272.342 41.615 A 37.809 37.809 0 0 1 272.3 39.8 L 272.3 22.8 Q 272.3 21.9 272.65 21.55 A 0.741 0.741 0 0 1 272.888 21.404 Q 273.431 21.177 274.9 21.1 Q 276.65 21.008 280.689 21.001 A 394.417 394.417 0 0 1 281.4 21 L 281.4 38.7 Q 281.4 42.6 282.5 44.15 Q 283.324 45.311 285.215 45.603 A 9.125 9.125 0 0 0 286.6 45.7 Q 288 45.7 289.4 45.5 A 27.781 27.781 0 0 0 291.072 45.211 A 22.708 22.708 0 0 0 292 45 L 292 22.8 Q 292 21.9 292.35 21.55 A 0.741 0.741 0 0 1 292.588 21.404 Q 293.131 21.177 294.6 21.1 Q 296.35 21.008 300.389 21.001 A 394.417 394.417 0 0 1 301.1 21 L 301.1 69.2 Q 301.1 70.1 300.75 70.45 A 0.741 0.741 0 0 1 300.512 70.596 Q 299.97 70.823 298.5 70.9 Q 296.75 70.992 292.711 71 A 394.417 394.417 0 0 1 292 71 Z M 216.8 42.2 L 227.5 42.2 A 2.869 2.869 0 0 1 228.007 42.242 Q 228.284 42.292 228.503 42.401 A 1.334 1.334 0 0 1 228.85 42.65 A 1.122 1.122 0 0 1 229.065 42.974 Q 229.301 43.484 229.384 44.522 A 11.994 11.994 0 0 1 229.4 44.75 A 38.027 38.027 0 0 1 229.444 45.691 Q 229.499 47.237 229.5 49.774 A 241.94 241.94 0 0 1 229.5 49.9 L 216.9 49.9 Q 217.091 55.149 217.965 58.258 A 16.17 16.17 0 0 0 218.05 58.55 Q 218.649 60.537 219.527 61.787 A 5.679 5.679 0 0 0 220.65 63 A 6.016 6.016 0 0 0 223.616 64.229 A 7.982 7.982 0 0 0 224.7 64.3 Q 226.9 64.3 229.05 63.6 Q 230.738 63.051 231.964 62.378 A 10.686 10.686 0 0 0 232.6 62 A 16.415 16.415 0 0 1 233.121 64.147 A 14.036 14.036 0 0 1 233.25 65.1 A 41.654 41.654 0 0 1 233.329 65.979 Q 233.395 66.821 233.4 67.417 A 11.309 11.309 0 0 1 233.4 67.5 A 1.998 1.998 0 0 1 233.151 68.437 Q 232.831 69.045 232.099 69.667 A 7.469 7.469 0 0 1 232 69.75 A 9.171 9.171 0 0 1 230.501 70.74 Q 229.74 71.148 228.826 71.484 A 16.566 16.566 0 0 1 228.35 71.65 Q 226.1 72.4 223.8 72.4 A 25.866 25.866 0 0 1 220.336 72.18 Q 218.505 71.932 216.942 71.406 A 15.278 15.278 0 0 1 216.5 71.25 Q 213.4 70.1 211.35 67.15 A 14.406 14.406 0 0 1 209.96 64.593 Q 208.925 62.175 208.3 58.8 Q 207.628 55.172 207.408 50.145 A 120.053 120.053 0 0 1 207.3 44.9 Q 207.3 36.448 208.763 31.441 A 22.406 22.406 0 0 1 208.85 31.15 Q 209.867 27.836 211.294 25.663 A 11.305 11.305 0 0 1 212.9 23.7 Q 215.4 21.3 218.2 20.65 Q 221 20 223.6 20 Q 226.581 20 228.697 20.624 A 9.055 9.055 0 0 1 230.85 21.55 Q 232.563 22.591 233.125 23.97 A 3.75 3.75 0 0 1 233.4 25.4 Q 233.4 26.5 233.05 27.6 Q 232.7 28.7 232.3 29.8 A 13.91 13.91 0 0 0 231.341 29.369 Q 230.87 29.177 230.322 28.985 A 31.715 31.715 0 0 0 229.15 28.6 Q 227.2 28 225.1 28 Q 223.7 28 222.3 28.4 A 5.049 5.049 0 0 0 220.708 29.192 A 6.957 6.957 0 0 0 219.7 30.1 A 5.784 5.784 0 0 0 218.928 31.183 Q 218.294 32.306 217.825 34.02 A 20.712 20.712 0 0 0 217.75 34.3 A 22.549 22.549 0 0 0 217.335 36.318 Q 216.964 38.6 216.82 41.748 A 76.826 76.826 0 0 0 216.8 42.2 Z M 514.1 32.2 L 514.1 37.3 Q 514.1 43 514.05 48.85 Q 514 54.7 513.9 59.8 A 357.994 357.994 0 0 1 513.811 63.442 Q 513.725 66.325 513.6 68.7 A 16.924 16.924 0 0 1 511.753 69.633 Q 510.742 70.074 509.538 70.473 A 36.873 36.873 0 0 1 507.8 71 Q 504.2 72 499.5 72 A 31.448 31.448 0 0 1 495.135 71.706 A 28.091 28.091 0 0 1 494.15 71.55 Q 491.6 71.1 489.55 69.55 A 8.378 8.378 0 0 1 487.626 67.466 Q 486.889 66.353 486.35 64.9 Q 485.53 62.689 485.295 59.46 A 38.073 38.073 0 0 1 485.2 56.7 A 42.23 42.23 0 0 1 485.324 53.356 Q 485.561 50.383 486.25 48.25 A 15.735 15.735 0 0 1 487.15 46.024 Q 487.73 44.869 488.458 43.991 A 8.382 8.382 0 0 1 489.15 43.25 A 10.444 10.444 0 0 1 491.685 41.459 A 9.356 9.356 0 0 1 493.25 40.85 Q 495.5 40.2 497.9 40.2 A 18.65 18.65 0 0 1 499.11 40.242 Q 499.783 40.286 500.549 40.376 A 38.104 38.104 0 0 1 501.5 40.5 A 12.673 12.673 0 0 1 503.091 40.826 Q 504.169 41.125 505 41.6 L 505 40.3 L 505 37.2 L 505 34 A 10.748 10.748 0 0 0 504.942 32.838 Q 504.813 31.656 504.4 30.9 A 3.472 3.472 0 0 0 502.723 29.373 A 4.409 4.409 0 0 0 502.55 29.3 A 6.271 6.271 0 0 0 501.427 28.976 Q 500.865 28.866 500.214 28.825 A 12.868 12.868 0 0 0 499.4 28.8 Q 495.9 28.8 492.4 29.45 Q 489.755 29.941 487.795 30.576 A 21.144 21.144 0 0 0 486.6 31 A 9.469 9.469 0 0 1 485.845 29.34 A 7.864 7.864 0 0 1 485.55 28.2 Q 485.359 27.128 485.314 26.291 A 9.186 9.186 0 0 1 485.3 25.8 A 4.851 4.851 0 0 1 485.406 24.817 A 6.314 6.314 0 0 1 485.6 24.1 A 3.302 3.302 0 0 1 485.851 23.523 Q 486.113 23.058 486.5 22.8 Q 487.8 22 491.85 21 A 30.931 30.931 0 0 1 495.43 20.353 Q 498.256 20 501.7 20 Q 507.855 20 510.792 22.348 A 7.155 7.155 0 0 1 511.2 22.7 Q 514.1 25.4 514.1 32.2 Z M 500.2 64.4 A 8.77 8.77 0 0 0 502.456 64.115 A 8.113 8.113 0 0 0 502.85 64 A 7.236 7.236 0 0 0 503.568 63.731 Q 503.927 63.572 504.21 63.39 A 2.952 2.952 0 0 0 504.7 63 Q 504.777 61.852 504.853 60.058 A 274.815 274.815 0 0 0 504.9 58.9 A 134.921 134.921 0 0 0 504.986 55.513 A 162.683 162.683 0 0 0 505 53.35 L 505 47.9 A 6.335 6.335 0 0 0 503.347 47.272 A 7.331 7.331 0 0 0 503 47.2 A 13.321 13.321 0 0 0 501.981 47.053 Q 501.48 47.002 501.029 47 A 8.132 8.132 0 0 0 501 47 A 8.605 8.605 0 0 0 499.097 47.205 A 7.747 7.747 0 0 0 498.55 47.35 A 4.113 4.113 0 0 0 496.795 48.432 A 5.062 5.062 0 0 0 496.55 48.7 Q 495.897 49.468 495.48 50.738 A 10.747 10.747 0 0 0 495.25 51.55 Q 494.948 52.793 494.849 54.555 A 32.922 32.922 0 0 0 494.8 56.4 A 29.723 29.723 0 0 0 494.834 57.87 Q 494.91 59.385 495.15 60.45 A 8.582 8.582 0 0 0 495.454 61.501 Q 495.757 62.331 496.2 62.9 Q 496.9 63.8 497.95 64.1 A 7.902 7.902 0 0 0 499.682 64.386 A 9.224 9.224 0 0 0 500.2 64.4 Z M 95.6 71 L 95.6 28.8 L 85.1 28.8 A 190.296 190.296 0 0 1 85.106 27.206 Q 85.125 24.975 85.2 23.7 A 10.91 10.91 0 0 1 85.261 23.014 Q 85.39 21.96 85.708 21.551 A 0.915 0.915 0 0 1 85.75 21.5 A 1.423 1.423 0 0 1 86.41 21.092 Q 86.638 21.023 86.912 21.006 A 2.99 2.99 0 0 1 87.1 21 L 115 21 Q 115 24.469 114.951 26.17 A 56.95 56.95 0 0 1 114.95 26.2 A 11.658 11.658 0 0 1 114.912 26.884 Q 114.813 27.999 114.5 28.35 Q 114.115 28.783 113.174 28.8 A 4.298 4.298 0 0 1 113.1 28.8 L 104.7 28.8 L 104.7 69.3 A 2.884 2.884 0 0 1 104.673 69.709 Q 104.604 70.188 104.359 70.441 A 0.871 0.871 0 0 1 104.35 70.45 A 0.741 0.741 0 0 1 104.112 70.596 Q 103.57 70.823 102.1 70.9 A 48.541 48.541 0 0 1 100.981 70.944 Q 99.254 70.994 96.311 71 A 394.417 394.417 0 0 1 95.6 71 Z M 46.4 71 L 34.2 71 L 34.2 22.8 A 2.336 2.336 0 0 1 34.257 22.27 Q 34.343 21.901 34.56 21.639 A 1.391 1.391 0 0 1 34.75 21.45 Q 35.183 21.096 36.265 21.021 A 9.155 9.155 0 0 1 36.9 21 L 46.1 21 A 32.544 32.544 0 0 1 53.572 21.844 A 30.797 30.797 0 0 1 53.6 21.85 A 12.606 12.606 0 0 1 57.3 23.34 A 11.172 11.172 0 0 1 59.55 25.15 A 7.677 7.677 0 0 1 61.256 28.042 Q 61.659 29.225 61.81 30.671 A 17.637 17.637 0 0 1 61.9 32.5 A 19.158 19.158 0 0 1 61.767 34.827 Q 61.544 36.644 60.95 38.05 Q 60 40.3 58.6 41.7 A 11.724 11.724 0 0 1 57.321 42.815 Q 56.592 43.358 55.849 43.705 A 7.224 7.224 0 0 1 55.75 43.75 Q 54.3 44.4 53.3 44.6 A 13.944 13.944 0 0 1 54.738 44.677 A 15.465 15.465 0 0 1 54.95 44.7 Q 55.503 44.765 55.908 44.873 A 3.42 3.42 0 0 1 56.3 45 L 58.1 45.6 A 6.791 6.791 0 0 1 59.179 46.075 Q 59.891 46.46 60.65 47.05 A 7.04 7.04 0 0 1 61.954 48.396 Q 62.497 49.121 62.95 50.05 A 8.4 8.4 0 0 1 63.565 51.824 Q 63.9 53.26 63.9 55.1 Q 63.9 59.5 62.1 63.1 A 12.947 12.947 0 0 1 57.679 68.068 A 16.305 16.305 0 0 1 56.4 68.85 Q 53.167 70.633 48.421 70.937 A 31.558 31.558 0 0 1 46.4 71 Z M 42.9 48.2 L 42.9 63.6 Q 43.694 63.699 44.685 63.7 A 20.297 20.297 0 0 0 44.7 63.7 L 46.5 63.7 A 8.252 8.252 0 0 0 48.75 63.41 A 6.06 6.06 0 0 0 51.8 61.45 A 6.761 6.761 0 0 0 52.958 59.39 Q 53.7 57.363 53.7 54.3 A 13.229 13.229 0 0 0 53.63 52.893 Q 53.556 52.204 53.404 51.629 A 5.485 5.485 0 0 0 53.05 50.65 Q 52.4 49.3 50.95 48.7 A 6.604 6.604 0 0 0 49.829 48.359 Q 48.65 48.102 47.026 48.1 A 20.994 20.994 0 0 0 47 48.1 A 66.416 66.416 0 0 0 46.006 48.107 Q 45.518 48.115 45.091 48.129 A 32.85 32.85 0 0 0 44.6 48.15 Q 43.913 48.185 43.367 48.195 A 23.788 23.788 0 0 1 42.9 48.2 Z M 42.9 28.2 L 42.9 42 A 16.037 16.037 0 0 0 44.437 42.099 A 14.612 14.612 0 0 0 44.65 42.1 L 46.4 42.1 Q 47.9 42.1 49.25 41.3 A 5.247 5.247 0 0 0 50.627 40.1 Q 51.106 39.516 51.5 38.75 Q 52.4 37 52.4 34.2 A 15.628 15.628 0 0 0 52.354 32.952 Q 52.248 31.635 51.9 30.8 A 5.052 5.052 0 0 0 51.436 29.924 Q 51.082 29.396 50.621 29.051 A 3.14 3.14 0 0 0 50.55 29 A 4.646 4.646 0 0 0 49.106 28.325 A 5.705 5.705 0 0 0 48.55 28.2 Q 47.4 28 46.2 28 Q 45.5 28 44.7 28.05 Q 43.9 28.1 43.4 28.15 L 42.9 28.2 Z M 526.4 49.7 L 525.9 48.45 A 11.188 11.188 0 0 1 525.553 47.431 Q 525.272 46.466 525.05 45.2 A 16.293 16.293 0 0 1 524.84 43.354 Q 524.766 42.106 524.85 40.7 A 11.205 11.205 0 0 1 525.526 37.536 A 14.624 14.624 0 0 1 526.4 35.6 A 58.964 58.964 0 0 1 528.335 32.13 A 47.541 47.541 0 0 1 529.7 30 Q 531.4 27.5 532.85 25.35 Q 534.3 23.2 535.15 20.95 A 13.37 13.37 0 0 0 535.983 16.824 A 15.473 15.473 0 0 0 536 16.1 Q 536 14.53 535.661 13.36 A 6.167 6.167 0 0 0 535.45 12.75 A 5.568 5.568 0 0 0 534.836 11.616 A 4.352 4.352 0 0 0 533.9 10.65 A 6.152 6.152 0 0 0 532.415 9.838 A 7.771 7.771 0 0 0 531.5 9.55 A 11.849 11.849 0 0 0 529.312 9.223 A 13.952 13.952 0 0 0 528.5 9.2 A 18.858 18.858 0 0 0 526.517 9.298 Q 525.512 9.404 524.675 9.627 A 7.658 7.658 0 0 0 523.15 10.2 A 92.821 92.821 0 0 0 522.362 10.609 Q 521.296 11.168 520.79 11.479 A 6.132 6.132 0 0 0 520.6 11.6 Q 519.9 9.8 519.55 8 Q 519.2 6.2 519.2 4.3 Q 519.2 3 521.15 2.05 Q 523.1 1.1 526.1 0.55 Q 529.1 0 531.9 0 Q 535.2 0 537.8 0.95 Q 540.4 1.9 542.2 3.65 A 11.082 11.082 0 0 1 544.547 7.017 A 13.353 13.353 0 0 1 544.95 8 A 15.362 15.362 0 0 1 545.74 11.311 A 20.19 20.19 0 0 1 545.9 13.9 Q 545.9 18.208 544.846 21.508 A 18.085 18.085 0 0 1 544.75 21.8 Q 543.6 25.2 541.8 27.9 Q 540 30.6 538.2 32.95 Q 536.4 35.3 535 37.9 Q 533.7 40.1 533.95 42.35 A 28.439 28.439 0 0 0 534.217 44.214 Q 534.381 45.132 534.597 45.935 A 16.557 16.557 0 0 0 534.7 46.3 Q 535.16 47.863 534.69 48.58 A 1.159 1.159 0 0 1 534.6 48.7 A 1.705 1.705 0 0 1 534.177 49.054 Q 533.744 49.32 533.031 49.502 A 8.303 8.303 0 0 1 532.6 49.6 A 15.589 15.589 0 0 1 530.341 49.876 A 18.346 18.346 0 0 1 529.4 49.9 A 24.678 24.678 0 0 1 527.989 49.862 Q 527.131 49.813 526.4 49.7 Z M 167.361 71.805 Q 165.463 71.57 163.85 71.05 Q 160.9 70.1 158.9 67.4 A 12.459 12.459 0 0 1 157.549 65.034 Q 156.544 62.771 155.95 59.55 Q 155.021 54.514 155.001 46.371 A 146.624 146.624 0 0 1 155 46 A 67.613 67.613 0 0 1 155.329 39.072 Q 156.049 32.108 158.346 27.848 A 15.803 15.803 0 0 1 159.4 26.15 A 13.933 13.933 0 0 1 169.474 20.122 A 18.122 18.122 0 0 1 171.6 20 A 21.559 21.559 0 0 1 175.315 20.302 Q 177.452 20.676 179.19 21.513 A 12.16 12.16 0 0 1 180.35 22.15 A 9.837 9.837 0 0 1 183.2 24.924 Q 184.597 26.925 185.5 29.9 A 31.332 31.332 0 0 1 186.397 33.849 Q 187.087 38.007 187.184 43.771 A 114.567 114.567 0 0 1 187.2 45.7 A 74.969 74.969 0 0 1 186.904 52.626 Q 186.265 59.488 184.246 63.723 A 15.872 15.872 0 0 1 183 65.9 A 13.522 13.522 0 0 1 173.136 71.851 A 19.295 19.295 0 0 1 170.7 72 A 27.15 27.15 0 0 1 167.361 71.805 Z M 171 64.3 Q 172.8 64.3 174.2 62.95 A 4.554 4.554 0 0 0 174.974 61.919 Q 175.836 60.406 176.4 57.55 Q 177.068 54.168 177.178 48.239 A 131.49 131.49 0 0 0 177.2 45.8 Q 177.2 38.1 176.6 34.2 A 22.508 22.508 0 0 0 176.259 32.425 Q 175.678 29.978 174.7 29 A 4.376 4.376 0 0 0 172.12 27.754 A 6.071 6.071 0 0 0 171.3 27.7 A 4.655 4.655 0 0 0 168.044 29.011 A 6.064 6.064 0 0 0 167.95 29.1 A 4.86 4.86 0 0 0 167.127 30.195 Q 166.459 31.363 165.977 33.271 A 25.026 25.026 0 0 0 165.7 34.5 A 31.628 31.628 0 0 0 165.296 37.192 Q 164.993 39.921 164.922 43.693 A 128.109 128.109 0 0 0 164.9 46.1 A 149.437 149.437 0 0 0 164.939 49.626 Q 165.022 53.139 165.283 55.635 A 43.816 43.816 0 0 0 165.3 55.8 A 40.335 40.335 0 0 0 165.553 57.731 Q 165.827 59.473 166.207 60.64 A 8.856 8.856 0 0 0 166.45 61.3 Q 166.935 62.465 167.588 63.127 A 3.058 3.058 0 0 0 168.35 63.7 A 5.261 5.261 0 0 0 170.086 64.24 A 6.749 6.749 0 0 0 171 64.3 Z M 70.8 71 L 70.8 25.1 Q 70.8 23 71.55 22.15 Q 72.235 21.374 73.963 21.181 A 9.402 9.402 0 0 1 74.3 21.15 Q 75.831 21.035 78.418 21.008 A 162.087 162.087 0 0 1 80.1 21 L 80.1 69.2 A 3.171 3.171 0 0 1 80.073 69.634 Q 79.995 70.192 79.7 70.45 Q 79.362 70.746 77.919 70.863 A 19.162 19.162 0 0 1 77.35 70.9 A 51.46 51.46 0 0 1 76.21 70.944 Q 74.457 70.994 71.511 71 A 394.94 394.94 0 0 1 70.8 71 Z M 241.21 81.009 Q 240.556 80.881 240.034 80.57 A 3.282 3.282 0 0 1 240 80.55 Q 239.1 80 238.6 78.6 Q 239.989 76.231 240.543 74.696 A 8.467 8.467 0 0 0 240.75 74.05 A 20.099 20.099 0 0 0 241.177 72.083 A 25.627 25.627 0 0 0 241.4 70.4 A 5.6 5.6 0 0 1 240.259 69.366 A 4.698 4.698 0 0 1 239.55 68.2 Q 239 66.9 239 65.1 A 7.646 7.646 0 0 1 239 65.063 Q 239.006 63.968 239.325 63.041 A 5.36 5.36 0 0 1 240.5 61.1 A 4.989 4.989 0 0 1 243.886 59.519 A 6.782 6.782 0 0 1 244.4 59.5 Q 247.4 59.5 248.9 61.1 A 5.017 5.017 0 0 1 249.974 62.943 Q 250.237 63.715 250.338 64.66 A 11.713 11.713 0 0 1 250.4 65.9 Q 250.4 68.7 249.45 71.45 A 22.383 22.383 0 0 1 248.067 74.653 A 18.886 18.886 0 0 1 247.05 76.35 Q 245.94 77.996 244.888 79.144 A 14.634 14.634 0 0 1 244.25 79.8 A 11.267 11.267 0 0 1 243.691 80.307 Q 242.848 81.015 242.321 81.091 A 0.853 0.853 0 0 1 242.2 81.1 A 5.135 5.135 0 0 1 241.21 81.009 Z M 528.864 71.491 Q 526.76 71.181 525.8 70 A 5.326 5.326 0 0 1 524.856 68.18 Q 524.5 67.018 524.5 65.5 Q 524.5 63 526.05 61.1 A 5.03 5.03 0 0 1 529.175 59.312 A 7.527 7.527 0 0 1 530.5 59.2 A 10.942 10.942 0 0 1 532.159 59.316 Q 534.335 59.651 535.3 60.95 Q 536.519 62.591 536.595 65.154 A 11.646 11.646 0 0 1 536.6 65.5 Q 536.6 68 535 69.8 A 5.222 5.222 0 0 1 532.03 71.458 A 7.798 7.798 0 0 1 530.5 71.6 A 11.293 11.293 0 0 1 528.864 71.491 Z M 73.719 14.645 A 4.071 4.071 0 0 1 71.8 13.35 A 3.725 3.725 0 0 1 71.198 12.263 Q 70.638 10.754 70.698 8.075 A 24.428 24.428 0 0 1 70.7 8 A 11.739 11.739 0 0 1 70.848 6.079 Q 71.024 5.02 71.409 4.161 A 5.967 5.967 0 0 1 71.95 3.2 A 4.055 4.055 0 0 1 74.691 1.493 A 6.335 6.335 0 0 1 75.8 1.4 Q 78.4 1.4 79.35 2.8 A 3.822 3.822 0 0 1 79.803 3.76 Q 80.256 5.142 80.204 7.535 A 24.246 24.246 0 0 1 80.2 7.7 Q 80.2 10.081 79.549 11.759 A 6.662 6.662 0 0 1 78.95 12.95 A 4.022 4.022 0 0 1 76.04 14.84 A 5.651 5.651 0 0 1 75.2 14.9 A 5.6 5.6 0 0 1 73.719 14.645 Z"/></g></svg>