<?xml version="1.0" standalone="no"?>
<!DOCTYPE svg PUBLIC "-//W3C//DTD SVG 20010904//EN"
 "http://www.w3.org/TR/2001/REC-SVG-20010904/DTD/svg10.dtd">
<svg version="1.0" xmlns="http://www.w3.org/2000/svg"
 width="1140.000000pt" height="1140.000000pt" viewBox="0 0 1140.000000 1140.000000"
 preserveAspectRatio="xMidYMid meet">
<metadata>
Created by potrace 1.14, written by Peter Selinger 2001-2017
</metadata>
<g transform="translate(0.000000,1140.000000) scale(0.100000,-0.100000)"
fill="#000000" stroke="none">
<path d="M0 8295 l0 -3105 720 0 c633 0 720 -2 720 -15 0 -8 7 -15 15 -15 11
0 15 11 15 40 l0 40 40 0 40 0 0 40 c0 22 5 40 10 40 6 0 10 18 10 39 0 50 21
71 71 71 35 0 39 3 39 25 0 20 5 25 25 25 23 0 25 4 25 40 0 22 4 40 9 40 6 0
11 19 13 43 l3 42 49 0 c42 0 54 5 83 33 27 28 33 41 33 78 0 37 3 44 20 44
17 0 20 7 20 40 0 22 5 40 10 40 6 0 10 18 10 40 0 22 5 40 10 40 6 0 10 -18
10 -40 0 -22 5 -40 10 -40 6 0 10 18 10 40 0 36 3 40 25 40 23 0 25 4 25 40 0
36 3 40 24 40 22 0 25 5 28 43 3 41 4 42 36 39 26 -3 38 2 49 18 9 13 21 19
32 15 32 -10 48 25 56 118 6 76 16 106 27 78 2 -5 26 -11 53 -12 l50 -4 3 53
c3 44 6 52 23 52 16 0 19 7 19 40 0 22 4 40 9 40 15 0 80 70 70 76 -12 7 -12
84 0 84 6 0 11 -17 13 -37 4 -52 28 -56 28 -4 0 23 5 41 10 41 6 0 10 18 10
39 0 32 -4 40 -20 43 -18 3 -17 7 14 41 19 20 31 37 25 37 -12 0 -12 97 1 105
6 3 10 -1 10 -9 0 -9 5 -16 10 -16 6 0 10 33 10 80 0 64 3 80 15 80 11 0 15
11 15 40 0 29 4 40 15 40 11 0 15 13 15 53 0 32 4 47 9 39 13 -22 21 22 21
123 0 50 4 117 10 150 5 33 12 83 15 110 2 28 9 70 14 95 5 25 16 83 24 130 9
47 25 108 36 135 l21 50 -7 -40 c-3 -22 -9 -42 -13 -45 -4 -3 -10 -27 -14 -55
-3 -27 -7 -63 -10 -80 -50 -357 -48 -788 4 -1070 25 -132 112 -462 131 -498 6
-10 7 -28 4 -40 -5 -17 -4 -19 4 -7 9 12 11 10 11 -12 0 -16 5 -28 10 -28 6 0
10 -8 10 -18 0 -29 43 -130 107 -253 68 -132 214 -382 225 -387 5 -2 8 -8 8
-14 0 -6 11 -26 25 -44 14 -18 25 -37 25 -43 0 -6 3 -11 8 -11 4 0 18 -17 32
-38 14 -20 28 -41 33 -47 75 -98 397 -609 397 -631 0 -2 11 -27 23 -56 86
-193 115 -325 122 -563 8 -234 35 -376 94 -498 27 -56 125 -219 150 -249 82
-101 126 -150 141 -158 10 -5 41 -10 69 -10 45 0 51 3 51 20 0 25 -37 100 -49
100 -5 0 -15 15 -21 34 -6 19 -17 37 -25 40 -8 3 -15 10 -15 16 0 6 -18 35
-40 65 -22 30 -40 56 -40 59 0 6 -82 139 -90 146 -21 17 -66 129 -75 185 -4
22 -9 44 -12 49 -7 10 -17 113 -17 180 -1 31 4 51 12 53 7 3 12 -4 12 -19 0
-18 2 -20 10 -8 7 11 10 7 11 -20 1 -31 3 -29 12 18 12 63 36 72 38 15 1 -21
1 -44 0 -51 -1 -6 3 -20 9 -30 8 -14 9 -12 4 11 -4 17 -2 27 5 27 6 0 11 -12
12 -27 0 -27 1 -27 9 -5 6 15 6 29 -2 41 -7 12 -8 43 -3 96 9 98 25 81 25 -27
0 -43 4 -78 8 -78 4 0 12 -14 17 -31 14 -42 31 -42 27 1 -2 36 12 70 24 57 4
-4 10 -24 13 -44 8 -51 41 -60 42 -11 6 371 6 878 -1 963 -7 89 -18 135 -55
243 -25 72 -45 140 -45 149 0 19 -18 79 -31 105 -5 10 -9 25 -9 33 0 8 -4 23
-10 33 -5 9 -19 37 -30 62 -23 52 -33 68 -77 131 -18 26 -33 51 -33 57 0 6 -3
12 -7 14 -20 8 -97 145 -208 365 -48 97 -64 120 -76 112 -30 -19 -39 -8 -12
15 25 22 26 27 15 45 -6 12 -12 28 -12 37 0 8 -6 14 -12 12 -12 -4 -38 33 -38
56 0 6 -7 24 -15 39 -8 15 -12 34 -8 42 3 9 -1 15 -11 15 -9 0 -16 8 -16 20 0
11 -4 20 -9 20 -5 0 -12 22 -16 50 -4 27 -16 61 -26 75 -11 13 -25 53 -30 87
-6 34 -11 64 -13 65 -3 3 -99 22 -142 28 -17 3 -42 9 -55 14 -13 4 -34 5 -46
0 -15 -6 -23 -3 -27 8 -11 28 -37 -5 -32 -41 12 -85 78 -360 106 -436 49 -137
97 -264 115 -305 12 -27 30 -70 39 -95 26 -64 145 -302 162 -321 8 -8 14 -19
14 -23 0 -5 29 -53 66 -108 36 -55 63 -102 61 -104 -6 -7 -154 140 -214 212
-114 139 -128 157 -137 173 -5 9 -12 18 -15 21 -3 3 -23 31 -44 63 -82 126
-197 372 -197 423 0 11 -4 24 -9 30 -4 5 -11 22 -15 38 -6 26 -5 27 9 13 8 -9
15 -21 15 -27 0 -7 8 -24 19 -38 10 -15 22 -37 25 -49 4 -13 12 -23 17 -23 12
0 4 31 -18 75 -15 30 -18 40 -30 125 -5 37 -7 41 -15 25 -5 -14 -7 -5 -3 25 3
26 2 40 -3 32 -6 -8 -9 -1 -9 20 -1 18 -4 47 -7 63 -4 17 -9 49 -12 73 -3 23
-10 45 -15 48 -5 3 -9 25 -9 48 0 51 -17 70 -54 60 -16 -4 -26 -2 -26 5 0 6
-11 11 -24 11 -30 0 -65 63 -67 118 -1 20 -3 29 -6 19 -2 -9 -8 -15 -13 -12
-12 7 -23 -32 -14 -47 5 -9 4 -10 -3 -3 -9 9 -37 114 -72 270 -20 89 -29 271
-21 408 10 150 28 250 71 387 30 93 107 266 132 292 6 8 17 22 23 33 5 10 20
19 32 20 19 1 22 -4 23 -34 1 -22 3 -28 6 -16 5 20 54 70 90 91 10 6 25 24 33
40 8 16 18 31 23 32 4 2 7 7 7 12 0 9 66 111 130 200 26 36 59 97 74 135 48
128 140 295 212 385 106 134 266 276 397 356 27 16 61 37 75 47 15 9 46 26 69
37 23 11 45 25 48 30 4 6 24 7 46 4 35 -6 39 -5 33 11 -6 14 -3 16 14 10 13
-4 22 -2 22 4 0 19 49 25 68 8 13 -11 28 -13 66 -7 26 4 52 13 56 20 5 9 19
11 44 6 37 -7 67 1 48 13 -6 3 34 6 89 6 62 0 103 4 107 11 4 6 52 15 107 19
55 4 118 9 140 11 161 17 245 21 350 17 194 -8 359 -3 367 10 5 9 15 7 36 -5
25 -15 48 -17 156 -13 76 3 126 1 126 -4 0 -6 -17 -12 -37 -14 -21 -2 -4 -3
37 -3 176 2 240 -3 240 -19 0 -8 6 -15 13 -15 6 0 23 -3 37 -5 22 -5 22 -4 5
4 -19 9 -19 10 2 10 12 1 23 7 26 14 4 10 7 10 18 0 17 -17 46 -17 52 0 4 9 6
9 6 0 1 -7 12 -13 25 -13 13 0 26 -6 29 -12 2 -9 26 -13 68 -14 95 -2 99 -3
99 -20 0 -10 5 -14 15 -10 17 6 85 -23 85 -36 0 -4 7 -8 15 -8 9 0 28 -8 43
-19 15 -10 73 -49 130 -86 57 -38 111 -79 121 -92 11 -12 23 -23 27 -23 12 -1
89 -81 147 -153 109 -136 223 -362 235 -465 2 -23 9 -45 13 -48 5 -3 9 -36 9
-73 0 -62 3 -73 43 -137 24 -38 53 -85 65 -104 28 -46 106 -202 108 -215 1 -5
12 -32 24 -60 44 -99 50 -113 50 -124 0 -22 -18 -10 -24 15 -8 29 -63 90 -73
80 -4 -3 -1 -6 5 -6 7 0 12 -7 12 -15 0 -8 5 -15 11 -15 7 0 9 -10 7 -24 -3
-16 -1 -23 7 -20 8 4 11 -3 8 -19 -3 -17 2 -31 19 -46 16 -16 18 -20 6 -16
-17 7 -17 4 -4 -33 8 -22 12 -43 9 -46 -3 -3 1 -8 9 -11 10 -4 14 -14 10 -27
-3 -13 -1 -19 5 -15 7 4 13 -14 18 -49 6 -50 8 -54 28 -49 15 4 18 3 9 -3 -14
-10 -10 -51 23 -217 32 -163 73 -594 58 -603 -6 -4 -14 -52 -17 -107 -7 -128
-15 -195 -26 -220 -5 -11 -11 -44 -15 -74 -3 -30 -18 -99 -32 -154 -31 -120
-24 -143 11 -34 3 9 11 17 17 17 13 0 3 -69 -12 -85 -5 -5 -9 -17 -9 -27 0
-10 -3 -18 -8 -18 -8 0 -24 -43 -48 -129 -8 -30 -22 -60 -31 -66 -9 -6 -14
-18 -11 -26 3 -8 -3 -25 -13 -38 -11 -13 -19 -30 -19 -37 0 -7 -6 -17 -12 -21
-7 -4 -43 -53 -80 -108 -59 -88 -235 -276 -313 -335 -11 -8 -43 -33 -70 -56
-47 -38 -201 -144 -211 -144 -11 0 0 24 41 83 25 37 45 68 45 71 0 3 17 32 38
64 34 54 94 174 171 344 36 79 71 183 71 210 0 10 11 41 25 68 l25 50 -59 0
c-33 0 -63 -5 -67 -11 -3 -6 -18 -9 -33 -6 -16 3 -33 -1 -43 -10 -16 -15 -18
-15 -18 1 0 13 -7 16 -36 13 -34 -4 -39 -9 -93 -103 -32 -54 -64 -110 -72
-123 -63 -108 -253 -407 -260 -409 -5 -2 -9 -10 -9 -17 0 -7 -10 -26 -22 -42
-13 -15 -28 -37 -35 -48 -108 -183 -137 -232 -171 -300 -22 -44 -48 -98 -57
-120 -9 -22 -21 -49 -26 -60 -12 -29 -39 -104 -50 -142 -25 -90 -32 -116 -51
-211 -21 -98 -21 -109 -7 -200 18 -124 17 -510 -1 -588 -12 -50 -15 -54 -42
-54 -15 0 -36 4 -46 9 -9 5 -57 17 -107 26 -49 9 -106 20 -125 25 -19 5 -66
17 -105 26 -38 8 -81 19 -95 24 -14 4 -45 13 -70 20 -176 49 -279 91 -281 113
-1 6 -1 33 1 60 1 36 -2 47 -13 47 -9 0 -17 -11 -20 -27 l-4 -28 -2 28 -1 27
-235 0 -235 0 0 -40 0 -39 123 -4 122 -3 -122 -2 -123 -2 0 -85 c0 -69 3 -86
18 -94 15 -9 15 -10 1 -11 -18 0 -32 -57 -17 -66 5 -3 4 -12 -2 -19 -6 -7 -10
-39 -8 -72 l3 -58 123 -2 c68 -1 126 -4 129 -7 4 -3 -53 -6 -125 -6 l-132 0 0
-25 c0 -16 6 -25 15 -25 8 0 15 -4 15 -10 0 -5 -7 -7 -15 -4 -12 5 -15 -6 -15
-62 0 -38 -3 -86 -6 -107 l-7 -37 137 0 c97 0 135 -3 130 -11 -4 -7 -47 -10
-128 -8 -66 2 -127 0 -133 -4 -9 -5 -13 -35 -13 -88 l0 -79 170 0 169 0 1 268
c1 147 5 287 8 312 l7 45 66 3 66 3 7 61 c10 95 7 173 -6 186 -9 9 -9 12 0 12
7 0 14 1 17 3 3 1 6 -55 8 -125 2 -70 6 -130 9 -133 3 -3 67 -7 143 -8 l138
-2 3 -40 c2 -22 5 -51 7 -65 2 -14 5 -94 5 -177 l2 -153 67 0 c36 0 64 -3 61
-6 -4 -3 -34 -5 -67 -5 l-61 0 0 -90 c0 -65 3 -89 13 -89 6 0 235 -1 507 -3
l495 -4 49 51 c26 28 74 85 107 126 32 41 65 83 73 92 27 31 96 167 120 235
41 120 48 165 57 358 10 230 28 366 59 440 4 11 25 65 45 120 38 103 139 313
191 397 61 100 238 394 248 412 6 11 15 25 19 30 28 38 207 354 207 366 0 5 3
10 7 12 13 5 134 243 173 338 12 30 30 73 40 95 17 39 91 263 110 335 36 131
56 243 76 405 28 240 12 667 -35 905 -28 141 -34 167 -41 185 -5 11 -12 36
-16 55 -3 19 -10 40 -14 45 -3 6 -15 37 -24 70 -10 33 -28 83 -41 110 -12 28
-28 66 -36 85 -17 46 -84 176 -139 270 -158 273 -476 638 -714 820 -223 170
-313 227 -531 334 -179 87 -217 103 -352 146 -176 56 -174 56 -298 84 -186 42
-213 46 -432 61 -216 16 -429 11 -643 -15 -79 -10 -253 -41 -310 -56 -14 -4
-22 -4 -18 0 13 15 226 68 363 90 86 14 137 18 341 32 120 7 420 -12 562 -37
194 -34 484 -114 597 -164 327 -146 500 -249 745 -444 209 -167 443 -427 612
-682 72 -108 188 -319 188 -341 0 -10 4 -18 8 -18 4 0 14 -17 21 -37 13 -36
24 -65 57 -140 8 -17 14 -36 14 -42 0 -6 4 -19 10 -29 14 -25 76 -218 90 -282
7 -30 16 -73 21 -95 43 -191 62 -415 57 -667 -3 -103 -2 -186 0 -183 3 3 8 71
12 153 l7 147 3 -180 c3 -161 4 -170 10 -85 l6 95 2 -77 c2 -62 5 -78 17 -78
11 0 15 -11 15 -40 0 -22 5 -40 10 -40 6 0 10 -18 10 -40 0 -22 5 -40 10 -40
6 0 10 -18 10 -40 0 -22 5 -40 10 -40 6 0 10 -33 10 -80 0 -44 4 -80 9 -80 5
0 12 -36 16 -80 7 -75 9 -80 30 -80 21 0 23 -5 30 -80 l7 -80 34 0 c33 0 34
-1 34 -40 0 -30 -4 -40 -16 -40 -9 0 -14 -6 -11 -12 2 -7 13 -13 24 -13 26 0
65 -35 59 -51 -3 -8 1 -11 9 -8 8 3 15 18 17 32 l3 27 25 -25 25 -25 -22 -3
c-19 -3 -23 -10 -23 -43 0 -32 3 -39 20 -39 17 0 20 -7 20 -40 0 -57 27 -55
33 3 l4 42 1 -42 c1 -24 7 -43 12 -43 6 0 10 -18 10 -40 0 -22 5 -40 10 -40 6
0 10 -18 10 -40 0 -29 4 -40 15 -40 12 0 15 17 15 97 0 75 3 94 12 85 7 -7 11
-32 9 -57 -1 -25 2 -45 7 -45 6 0 14 -42 18 -92 l9 -93 53 -3 c45 -3 52 -6 52
-24 0 -19 5 -20 50 -16 28 3 50 1 50 -3 0 -5 -22 -9 -50 -9 -38 0 -50 -4 -50
-15 0 -11 11 -15 40 -15 36 0 40 -2 40 -25 0 -16 6 -25 15 -25 11 0 15 -11 15
-40 0 -36 3 -40 25 -40 23 0 25 -4 25 -40 0 -36 3 -40 24 -40 13 0 26 -7 30
-15 3 -8 10 -15 16 -15 5 0 10 7 10 15 0 8 7 15 15 15 11 0 15 -11 15 -40 0
-22 5 -40 10 -40 6 0 10 -18 10 -40 l0 -40 40 0 40 0 0 -40 c0 -29 4 -40 15
-40 8 0 15 7 15 15 0 13 102 15 860 15 l860 0 0 3105 0 3105 -5700 0 -5700 0
0 -3105z m6767 1509 c-3 -3 -12 -4 -19 -1 -8 3 -5 6 6 6 11 1 17 -2 13 -5z
m-2172 -34 c3 -5 -3 -10 -14 -10 -12 0 -21 5 -21 10 0 6 6 10 14 10 8 0 18 -4
21 -10z m-1154 -653 c-10 -9 -11 -8 -5 6 3 10 9 15 12 12 3 -3 0 -11 -7 -18z
m-80 -104 c-12 -20 -14 -14 -5 12 4 9 9 14 11 11 3 -2 0 -13 -6 -23z m-40 -46
l-24 -22 19 27 c10 14 21 24 23 22 3 -3 -6 -15 -18 -27z m-38 -52 c-3 -9 -8
-14 -10 -11 -3 3 -2 9 2 15 9 16 15 13 8 -4z m-39 -60 c-9 -14 -18 -25 -20
-25 -2 0 2 11 8 25 6 14 15 25 20 25 5 0 1 -11 -8 -25z m-66 -99 c-7 -8 -15
-12 -17 -11 -5 6 10 25 20 25 5 0 4 -6 -3 -14z m-91 -168 c-3 -8 -6 -5 -6 6
-1 11 2 17 5 13 3 -3 4 -12 1 -19z m-45 -85 c-3 -16 -7 -22 -10 -15 -4 13 4
42 11 42 2 0 2 -12 -1 -27z m-140 -355 c-7 -7 -12 -8 -12 -2 0 14 12 26 19 19
2 -3 -1 -11 -7 -17z m-15 -55 c-3 -10 -5 -4 -5 12 0 17 2 24 5 18 2 -7 2 -21
0 -30z m5110 -125 c-3 -8 -6 -5 -6 6 -1 11 2 17 5 13 3 -3 4 -12 1 -19z m69
-92 c3 -19 4 -41 1 -48 -3 -7 -6 -1 -6 14 -1 15 -5 30 -11 33 -13 8 -13 35 0
35 5 0 12 -16 16 -34z m-29 -43 c-3 -10 -5 -4 -5 12 0 17 2 24 5 18 2 -7 2
-21 0 -30z m173 -369 c0 -8 -4 -14 -10 -14 -5 0 -10 9 -10 21 0 11 5 17 10 14
6 -3 10 -13 10 -21z m177 -16 c-3 -7 -5 -2 -5 12 0 14 2 19 5 13 2 -7 2 -19 0
-25z m240 -270 c-2 -13 -4 -3 -4 22 0 25 2 35 4 23 2 -13 2 -33 0 -45z m-240
-325 c-3 -10 -5 -2 -5 17 0 19 2 27 5 18 2 -10 2 -26 0 -35z m-4805 -33 c-2
-16 -8 -27 -13 -24 -11 6 -12 38 -2 47 14 14 19 6 15 -23z m4585 -72 c-3 -8
-6 -5 -6 6 -1 11 2 17 5 13 3 -3 4 -12 1 -19z m-7 -73 c0 -8 -2 -15 -4 -15 -2
0 -6 7 -10 15 -3 8 -1 15 4 15 6 0 10 -7 10 -15z m207 -7 c-3 -8 -6 -5 -6 6
-1 11 2 17 5 13 3 -3 4 -12 1 -19z m-230 -60 c-3 -8 -6 -5 -6 6 -1 11 2 17 5
13 3 -3 4 -12 1 -19z m-4907 -23 c0 -8 -4 -15 -10 -15 -5 0 -10 7 -10 15 0 8
5 15 10 15 6 0 10 -7 10 -15z m5107 -52 c-3 -10 -5 -4 -5 12 0 17 2 24 5 18 2
-7 2 -21 0 -30z m-207 13 c0 -8 -4 -18 -10 -21 -5 -3 -10 3 -10 14 0 12 5 21
10 21 6 0 10 -6 10 -14z m-4880 -11 c0 -8 -4 -15 -10 -15 -5 0 -10 7 -10 15 0
8 5 15 10 15 6 0 10 -7 10 -15z m4860 -47 c0 -16 -3 -19 -11 -11 -6 6 -8 16
-5 22 11 17 16 13 16 -11z m200 -70 c-27 -113 -146 -450 -162 -456 -4 -2 -8
-11 -8 -20 0 -21 -140 -296 -230 -452 -40 -69 -83 -145 -97 -170 -14 -25 -32
-52 -39 -61 -8 -8 -14 -19 -14 -23 0 -7 -51 -88 -61 -96 -3 -3 -9 -12 -12 -20
-4 -12 -6 -12 -6 2 -1 9 5 23 12 30 7 7 20 27 29 43 24 46 141 254 176 313 18
29 32 56 32 59 0 3 20 41 45 84 59 103 185 353 185 368 0 6 4 19 9 29 31 60
124 329 136 395 4 21 10 36 12 33 3 -3 0 -29 -7 -58z m-215 23 c3 -5 1 -12 -5
-16 -5 -3 -10 1 -10 9 0 18 6 21 15 7z m-5695 -46 c0 -33 -2 -35 -35 -35 l-36
0 28 35 c15 19 31 35 36 35 4 0 7 -16 7 -35z m1380 -139 c0 -3 -4 -8 -10 -11
-5 -3 -10 -1 -10 4 0 6 5 11 10 11 6 0 10 -2 10 -4z m-73 -32 c-3 -3 -12 -4
-19 -1 -8 3 -5 6 6 6 11 1 17 -2 13 -5z m700 -1926 c-2 -13 -4 -3 -4 22 0 25
2 35 4 23 2 -13 2 -33 0 -45z m-220 -5 c-3 -10 -5 -2 -5 17 0 19 2 27 5 18 2
-10 2 -26 0 -35z m-58 -73 c1 -41 -3 -82 -9 -90 -7 -10 -10 19 -9 95 0 122 15
118 18 -5z m217 -106 c-12 -30 -21 -11 -19 39 1 28 3 77 4 107 1 47 3 41 11
-38 5 -52 7 -100 4 -108z m1232 -71 c-16 -2 -40 -2 -55 0 -16 2 -3 4 27 4 30
0 43 -2 28 -4z m-211 -181 c7 -4 -20 -6 -60 -4 -108 5 -122 9 -32 10 44 1 85
-2 92 -6z m243 -2 c0 -6 -26 -10 -57 -10 -41 0 -54 3 -43 10 20 13 100 13 100
0z m110 0 c0 -6 -13 -9 -30 -8 -16 1 -30 6 -30 10 0 4 14 8 30 8 17 0 30 -5
30 -10z m357 4 c-3 -3 -12 -4 -19 -1 -8 3 -5 6 6 6 11 1 17 -2 13 -5z m-240
-10 c-3 -3 -12 -4 -19 -1 -8 3 -5 6 6 6 11 1 17 -2 13 -5z m156 -231 c-7 -2
-19 -2 -25 0 -7 3 -2 5 12 5 14 0 19 -2 13 -5z m50 0 c-7 -2 -19 -2 -25 0 -7
3 -2 5 12 5 14 0 19 -2 13 -5z m-643 -63 c0 -6 -42 -10 -105 -10 -63 0 -105 4
-105 10 0 6 42 10 105 10 63 0 105 -4 105 -10z m678 -5 c3 -3 -13 -5 -36 -5
-22 0 -43 4 -46 9 -6 9 73 5 82 -4z m-681 -151 c-3 -3 -12 -4 -19 -1 -8 3 -5
6 6 6 11 1 17 -2 13 -5z m956 -61 c-24 -2 -62 -2 -85 0 -24 2 -5 4 42 4 47 0
66 -2 43 -4z m-2003 -84 c0 -5 -7 -9 -15 -9 -15 0 -20 12 -9 23 8 8 24 -1 24
-14z"/>
<path d="M6800 9756 c0 -9 5 -16 10 -16 6 0 10 4 10 9 0 6 -4 13 -10 16 -5 3
-10 -1 -10 -9z"/>
<path d="M2743 7075 c0 -27 2 -38 4 -22 2 15 2 37 0 50 -2 12 -4 0 -4 -28z"/>
<path d="M2722 7020 c0 -14 2 -19 5 -12 2 6 2 18 0 25 -3 6 -5 1 -5 -13z"/>
<path d="M2731 6944 c0 -11 3 -14 6 -6 3 7 2 16 -1 19 -3 4 -6 -2 -5 -13z"/>
<path d="M3245 6880 c3 -5 8 -10 11 -10 2 0 4 5 4 10 0 6 -5 10 -11 10 -5 0
-7 -4 -4 -10z"/>
<path d="M3250 6836 c0 -8 4 -17 9 -20 5 -3 12 -42 16 -86 4 -44 11 -80 16
-80 6 0 7 15 4 33 -3 17 -7 54 -10 80 -5 45 -19 87 -30 87 -3 0 -5 -6 -5 -14z"/>
<path d="M3695 6750 c3 -5 8 -10 11 -10 2 0 4 5 4 10 0 6 -5 10 -11 10 -5 0
-7 -4 -4 -10z"/>
<path d="M3716 6680 c6 -46 11 -57 19 -49 2 3 -2 25 -10 49 l-15 45 6 -45z"/>
<path d="M3761 6530 c0 -19 3 -42 9 -50 16 -26 19 -5 5 40 l-14 45 0 -35z"/>
<path d="M3790 6434 c0 -8 5 -12 10 -9 6 4 8 11 5 16 -9 14 -15 11 -15 -7z"/>
<path d="M8007 6291 c-4 -17 -3 -21 5 -13 5 5 8 16 6 23 -3 8 -7 3 -11 -10z"/>
<path d="M7964 6216 c-9 -19 -9 -23 1 -19 14 5 28 43 17 43 -4 0 -12 -11 -18
-24z"/>
<path d="M5367 5516 c-8 -173 -6 -208 8 -194 3 3 4 90 3 194 l-3 189 -8 -189z"/>
<path d="M1760 5615 c0 -22 4 -25 40 -25 36 0 40 3 40 25 0 23 -4 25 -40 25
-36 0 -40 -2 -40 -25z"/>
<path d="M5081 5404 c0 -11 3 -14 6 -6 3 7 2 16 -1 19 -3 4 -6 -2 -5 -13z"/>
<path d="M5132 5240 c0 -14 2 -19 5 -12 2 6 2 18 0 25 -3 6 -5 1 -5 -13z"/>
<path d="M5950 5207 c0 -8 15 -22 33 -31 71 -39 71 -41 78 -341 10 -409 26
-443 28 -57 1 252 -2 318 -13 340 -15 28 -76 91 -76 78 0 -4 -7 0 -16 8 -19
20 -34 21 -34 3z"/>
<path d="M5576 4813 c-13 -14 -5 -23 22 -23 74 0 97 -118 45 -227 -25 -54
-103 -63 -103 -12 0 11 -7 19 -15 19 -21 0 -19 -43 4 -64 10 -9 35 -17 56 -18
32 -1 43 4 66 32 54 64 62 212 15 267 -21 24 -76 40 -90 26z"/>
<path d="M4422 3905 c0 -16 2 -22 5 -12 2 9 2 23 0 30 -3 6 -5 -1 -5 -18z"/>
<path d="M5499 3094 c-14 -4 -17 -18 -15 -72 0 -37 6 -70 11 -74 14 -11 496
-8 520 2 17 7 17 9 3 9 -19 1 -26 21 -8 21 6 0 10 23 10 50 0 29 -5 50 -11 50
-5 0 -8 4 -5 9 6 9 -474 13 -505 5z"/>
<path d="M4346 2588 c3 -13 26 -53 50 -89 52 -79 64 -108 64 -159 0 -34 -6
-43 -46 -76 -89 -73 -95 -118 -25 -185 103 -99 99 -136 -27 -239 -28 -23 -44
-46 -48 -67 -6 -29 -1 -37 57 -91 75 -71 82 -107 33 -151 -54 -49 -74 -82 -74
-123 0 -40 1 -41 83 -116 63 -58 62 -107 -5 -171 -52 -50 -78 -90 -78 -118 0
-27 64 -76 200 -152 52 -30 133 -79 180 -110 47 -31 110 -69 140 -85 30 -16
64 -38 76 -50 18 -18 83 -120 254 -403 l44 -71 55 -6 c45 -4 707 -2 814 3 22
1 35 12 64 58 78 121 252 414 258 434 6 17 3 19 -17 14 -13 -3 -29 -1 -37 4
-12 8 -12 12 -2 25 11 14 11 16 -5 16 -16 0 -17 2 -4 10 13 8 13 11 1 19 -7 5
-10 14 -7 20 5 7 -2 11 -18 11 -14 0 -26 -4 -26 -10 0 -5 -5 -10 -10 -10 -6 0
-9 6 -8 12 2 8 -13 15 -37 18 l-40 5 56 13 c65 15 81 40 49 75 -11 11 -17 23
-15 27 7 12 -33 18 -125 19 -98 1 -193 11 -186 19 3 3 1 11 -5 19 -9 9 -8 13
0 13 6 0 2 9 -9 20 -29 29 -25 40 18 40 49 0 25 16 -38 25 -63 9 -82 21 -50
33 14 5 32 12 40 15 8 3 -3 6 -25 8 -24 1 -31 3 -17 6 30 6 29 33 -3 33 -31 0
-76 20 -69 31 3 5 -10 10 -28 10 -18 1 -94 4 -168 8 l-135 6 110 8 c61 4 119
13 130 19 14 8 20 8 23 -1 2 -6 16 -11 30 -10 15 0 21 3 15 6 -18 7 -16 21 5
26 11 3 8 5 -9 6 -35 1 -91 30 -83 43 4 5 20 7 36 4 20 -4 28 -2 26 6 -2 6
-13 13 -24 15 -74 13 -169 22 -223 23 -95 0 -68 10 44 16 108 5 148 17 96 27
-23 5 -31 12 -29 24 2 13 -4 18 -22 20 -14 0 -29 2 -35 3 -29 6 -42 4 -63 -14
-17 -15 -25 -17 -34 -8 -9 9 -9 12 0 12 7 0 12 4 12 10 0 5 -44 11 -97 13
l-98 3 108 2 c126 2 144 20 25 24 l-83 3 85 11 c76 10 79 11 35 13 -27 1 -68
6 -90 10 l-40 9 40 1 c22 1 57 4 78 7 36 6 37 8 21 25 -14 15 -32 19 -98 20
-45 0 -90 4 -101 9 -13 6 9 9 68 9 86 1 87 1 68 20 -13 13 -41 22 -86 26 -71
8 -72 25 -2 25 38 0 44 9 31 44 -4 11 -20 16 -53 16 -25 0 -53 5 -61 10 -11 7
2 10 43 10 61 0 69 13 17 25 -33 7 -37 14 -18 33 9 9 9 12 -1 12 -7 0 -9 5 -6
10 4 6 -12 11 -39 12 -25 1 -54 2 -63 2 -12 1 -20 -9 -24 -29 l-6 -30 -4 30
c-4 29 -7 30 -64 36 l-60 6 50 3 c28 1 54 2 59 1 13 -3 36 20 30 30 -3 5 -29
9 -57 10 -62 1 -52 7 17 11 43 3 50 6 51 26 1 17 -4 22 -21 22 -13 0 -26 5
-29 10 -3 6 -31 10 -62 10 -44 0 -53 3 -45 13 6 7 10 22 8 32 -2 16 -13 21
-57 25 -47 5 -51 7 -26 14 15 4 38 5 52 2 22 -6 25 -3 25 19 0 26 -14 36 -75
51 -29 7 -29 8 -5 11 14 2 32 6 40 10 24 9 -17 21 -72 22 -27 1 -48 6 -48 11
0 6 16 10 36 10 38 0 39 19 1 21 -20 1 -20 2 3 8 28 8 29 34 3 64 -9 9 -12 17
-7 18 26 3 -48 17 -94 18 -60 1 -64 21 -4 21 47 0 82 19 37 20 -16 0 -39 7
-49 15 -18 14 -19 15 -2 15 13 0 17 5 13 20 -3 10 0 21 7 23 6 2 -10 8 -36 12
-27 4 -48 9 -48 12 0 3 10 13 23 24 22 18 22 18 -40 19 -43 0 -63 -4 -63 -12
0 -9 -3 -9 -11 -1 -20 20 14 43 63 43 37 1 40 2 23 12 -11 7 -26 18 -33 25
-12 12 -61 19 -106 14 -11 -1 -22 3 -25 8 -5 7 -172 41 -203 41 -5 0 -6 -10
-2 -22z m279 -76 c-3 -3 -11 0 -18 7 -9 10 -8 11 6 5 10 -3 15 -9 12 -12z m50
-82 c4 -6 -5 -10 -20 -10 -15 0 -24 4 -20 10 3 6 12 10 20 10 8 0 17 -4 20
-10z m315 -600 c0 -5 -5 -10 -11 -10 -5 0 -7 5 -4 10 3 6 8 10 11 10 2 0 4 -4
4 -10z m290 -50 c0 -5 -10 -11 -22 -12 -13 0 -35 -2 -50 -3 -16 -1 -28 3 -28
10 0 7 20 12 50 14 30 1 50 -2 50 -9z m-95 -52 c36 -7 -26 -14 -65 -7 -30 5
-31 7 -8 8 15 0 30 6 34 12 4 7 9 8 13 1 3 -5 15 -12 26 -14z m66 -176 c-7 -2
-18 1 -23 6 -8 8 -4 9 13 5 13 -4 18 -8 10 -11z m182 -159 c-7 -2 -21 -2 -30
0 -10 3 -4 5 12 5 17 0 24 -2 18 -5z m240 -140 c-7 -2 -21 -2 -30 0 -10 3 -4
5 12 5 17 0 24 -2 18 -5z"/>
<path d="M4808 2353 c7 -3 16 -2 19 1 4 3 -2 6 -13 5 -11 0 -14 -3 -6 -6z"/>
<path d="M5056 2041 c-15 -16 -15 -19 -2 -24 10 -4 20 1 26 13 14 26 -3 34
-24 11z"/>
<path d="M5047 1994 c-13 -13 4 -24 38 -24 18 0 35 -5 37 -12 3 -8 9 -8 24 0
18 11 18 11 -3 12 -12 0 -23 4 -25 9 -4 11 -62 24 -71 15z"/>
<path d="M5190 1850 c0 -5 16 -10 35 -10 19 0 35 5 35 10 0 6 -16 10 -35 10
-19 0 -35 -4 -35 -10z"/>
<path d="M5400 1656 c0 -9 7 -16 16 -16 17 0 14 22 -4 28 -7 2 -12 -3 -12 -12z"/>
<path d="M5453 1603 c9 -2 23 -2 30 0 6 3 -1 5 -18 5 -16 0 -22 -2 -12 -5z"/>
<path d="M5760 1250 c0 -5 10 -10 23 -10 18 0 19 2 7 10 -19 13 -30 13 -30 0z"/>
<path d="M6410 660 c0 -5 5 -10 11 -10 5 0 7 5 4 10 -3 6 -8 10 -11 10 -2 0
-4 -4 -4 -10z"/>
<path d="M6380 650 c0 -5 5 -10 10 -10 6 0 10 5 10 10 0 6 -4 10 -10 10 -5 0
-10 -4 -10 -10z"/>
</g>
</svg>
